<svg xmlns="http://www.w3.org/2000/svg" viewBox="0 0 496.96 417.52"><defs><style>.cls-1{fill:#ffca05;}.cls-2{fill:#212121;}</style></defs><title>textureRecurso 1</title><g id="Capa_2" data-name="Capa 2"><g id="vector_patterns" data-name="vector patterns"><g id="batman"><rect class="cls-1" width="496.96" height="417.52"/><path class="cls-2" d="M497,375.39a32.81,32.81,0,0,0-4.84.33c-2.14-3.52-4.27-8.06-6.4-11.58-.23,6.94-.55,13.86-1,18.8-3.33,37.91-58.06,19.65-31-14.37-42.8,10.88-62.91,29.83-64.66,48.95H497Z"/><path class="cls-2" d="M43.24,368.57c27,34-27.69,52.28-31,14.37-.43-4.94-.76-11.86-1-18.8C9.11,367.66,7,372.2,4.84,375.72A35.78,35.78,0,0,0,0,375.39v42.13H107.91C106.15,398.4,86,379.45,43.24,368.57Z"/><path class="cls-2" d="M492.12,236.55c-2.14-3.53-4.27-8.06-6.4-11.59-.23,6.95-.55,13.87-1,18.81-3.33,37.91-58.06,19.64-31-14.37-83.26,21.15-80.7,72.89-24,96.94-16.85-27.34,6.29-37,27.2-14.92,15.52-23.72,30-7.8,40,20.31h0V236.21A34.24,34.24,0,0,0,492.12,236.55Z"/><path class="cls-2" d="M291.72,299c27,34-27.68,52.28-31,14.38-.43-4.95-.76-11.87-1-18.81-2.14,3.52-4.27,8.06-6.41,11.58a35.66,35.66,0,0,0-9.68,0c-2.14-3.52-4.27-8.06-6.4-11.58-.23,6.94-.55,13.86-1,18.81-3.33,37.9-58.06,19.64-31-14.38-83.26,21.16-80.7,72.89-24,96.94-16.86-27.33,6.29-37,27.2-14.91,15.52-23.72,30-7.8,40,20.3,10-28.1,24.52-44,40-20.3,20.91-22.06,44.05-12.42,27.2,14.91C372.42,371.87,375,320.14,291.72,299Z"/><path class="cls-2" d="M40,311.42C61,289.37,84.09,299,67.24,326.34c56.7-24,59.26-75.79-24-96.94,27,34-27.69,52.28-31,14.37-.43-4.94-.76-11.86-1-18.81C9.11,228.49,7,233,4.84,236.55A37.5,37.5,0,0,0,0,236.21v95.51C10,303.62,24.52,287.7,40,311.42Z"/><path class="cls-2" d="M492.12,97.37c-2.14-3.52-4.27-8.06-6.4-11.58-.23,6.94-.55,13.86-1,18.81-3.33,37.9-58.06,19.64-31-14.38-83.26,21.16-80.7,72.89-24,96.95-16.85-27.34,6.29-37,27.2-14.92,15.52-23.72,30-7.8,40,20.3h0V97A34.23,34.23,0,0,0,492.12,97.37Z"/><path class="cls-2" d="M291.72,159.81c27,34-27.68,52.28-31,14.37-.43-4.94-.76-11.86-1-18.8-2.14,3.52-4.27,8.06-6.41,11.58a35.26,35.26,0,0,0-9.68,0c-2.14-3.52-4.27-8.06-6.4-11.58-.23,6.94-.55,13.86-1,18.8-3.33,37.91-58.06,19.65-31-14.37-83.26,21.16-80.7,72.89-24,96.94-16.86-27.34,6.29-37,27.2-14.91,15.52-23.73,30-7.8,40,20.3,10-28.1,24.52-44,40-20.3,20.91-22.06,44.05-12.43,27.2,14.91C372.42,232.7,375,181,291.72,159.81Z"/><path class="cls-2" d="M40,172.25c20.91-22.06,44.05-12.42,27.2,14.92,56.7-24.06,59.26-75.79-24-96.95,27,34-27.69,52.28-31,14.38-.43-4.95-.76-11.87-1-18.81C9.11,89.31,7,93.85,4.84,97.37A37.48,37.48,0,0,0,0,97v95.5C10,164.45,24.52,148.53,40,172.25Z"/><path class="cls-2" d="M429.72,48c-16.85-27.34,6.29-37,27.2-14.91,15.52-23.73,30-7.8,40,20.3h0V0H389.06C387.4,18.08,402.17,36.3,429.72,48Z"/><path class="cls-2" d="M291.72,20.64c27,34-27.68,52.28-31,14.37-.43-4.94-.76-11.86-1-18.8-2.14,3.52-4.27,8.05-6.41,11.58a35.26,35.26,0,0,0-9.68,0c-2.14-3.53-4.27-8.06-6.4-11.58-.23,6.94-.55,13.86-1,18.8-3.33,37.91-58.06,19.64-31-14.37-83.26,21.16-80.7,72.89-24,96.94-16.86-27.34,6.29-37,27.2-14.92,15.52-23.72,30-7.8,40,20.31,10-28.11,24.52-44,40-20.31,20.91-22,44.05-12.42,27.2,14.92C372.42,93.53,375,41.8,291.72,20.64Z"/><path class="cls-2" d="M40,33.08C61,11,84.09,20.65,67.24,48,94.8,36.3,109.56,18.08,107.91,0H0V53.37C10,25.27,24.52,9.36,40,33.08Z"/></g></g></g></svg>